<?xml version="1.0" encoding="UTF-8" standalone="no"?>
<!-- Created with Inkscape (http://www.inkscape.org/) -->

<svg
   width="512"
   height="512"
   viewBox="0 0 135.46666 135.46667"
   version="1.1"
   id="svg1"
   inkscape:version="1.3 (0e150ed6c4, 2023-07-21)"
   sodipodi:docname="icon.svg"
   inkscape:export-filename="../../../../tmp/icon.png"
   inkscape:export-xdpi="96"
   inkscape:export-ydpi="96"
   xmlns:inkscape="http://www.inkscape.org/namespaces/inkscape"
   xmlns:sodipodi="http://sodipodi.sourceforge.net/DTD/sodipodi-0.dtd"
   xmlns="http://www.w3.org/2000/svg"
   xmlns:svg="http://www.w3.org/2000/svg"
   xmlns:rdf="http://www.w3.org/1999/02/22-rdf-syntax-ns#"
   xmlns:cc="http://creativecommons.org/ns#">
  <sodipodi:namedview
     id="namedview1"
     pagecolor="#505050"
     bordercolor="#ffffff"
     borderopacity="1"
     inkscape:showpageshadow="0"
     inkscape:pageopacity="0"
     inkscape:pagecheckerboard="1"
     inkscape:deskcolor="#505050"
     inkscape:document-units="mm"
     inkscape:zoom="2.170881"
     inkscape:cx="274.08227"
     inkscape:cy="205.90719"
     inkscape:window-width="1920"
     inkscape:window-height="1080"
     inkscape:window-x="0"
     inkscape:window-y="0"
     inkscape:window-maximized="1"
     inkscape:current-layer="layer1"
     showguides="false" />
  <defs
     id="defs1">
    <inkscape:path-effect
       effect="spiro"
       id="path-effect9"
       is_visible="true"
       lpeversion="1" />
    <inkscape:path-effect
       effect="spiro"
       id="path-effect8"
       is_visible="true"
       lpeversion="1" />
    <inkscape:path-effect
       effect="bspline"
       id="path-effect7"
       is_visible="true"
       lpeversion="1.3"
       weight="33.333333"
       steps="2"
       helper_size="0"
       apply_no_weight="true"
       apply_with_weight="true"
       only_selected="false"
       uniform="false" />
    <inkscape:path-effect
       effect="spiro"
       id="path-effect6"
       is_visible="true"
       lpeversion="1" />
    <filter
       style="color-interpolation-filters:sRGB;"
       inkscape:label="Drop Shadow"
       id="filter20"
       x="-2.354351"
       y="-5.3559244"
       width="5.708702"
       height="11.711849">
      <feFlood
         result="flood"
         in="SourceGraphic"
         flood-opacity="0.498039"
         flood-color="rgb(0,0,0)"
         id="feFlood19" />
      <feGaussianBlur
         result="blur"
         in="SourceGraphic"
         stdDeviation="20.386204"
         id="feGaussianBlur19" />
      <feOffset
         result="offset"
         in="blur"
         dx="0.000000"
         dy="0.000000"
         id="feOffset19" />
      <feComposite
         result="comp1"
         operator="in"
         in="flood"
         in2="offset"
         id="feComposite19" />
      <feComposite
         result="fbSourceGraphic"
         operator="over"
         in="SourceGraphic"
         in2="comp1"
         id="feComposite20" />
      <feColorMatrix
         result="fbSourceGraphicAlpha"
         in="fbSourceGraphic"
         values="0 0 0 -1 0 0 0 0 -1 0 0 0 0 -1 0 0 0 0 1 0"
         id="feColorMatrix38" />
      <feFlood
         id="feFlood38"
         result="flood"
         in="fbSourceGraphic"
         flood-opacity="1.000000"
         flood-color="rgb(27,27,27)" />
      <feGaussianBlur
         id="feGaussianBlur38"
         result="blur"
         in="fbSourceGraphic"
         stdDeviation="2.200000" />
      <feOffset
         id="feOffset38"
         result="offset"
         in="blur"
         dx="0.000000"
         dy="0.000000" />
      <feComposite
         id="feComposite38"
         result="comp1"
         operator="in"
         in="flood"
         in2="offset" />
      <feComposite
         id="feComposite39"
         result="fbSourceGraphic"
         operator="over"
         in="fbSourceGraphic"
         in2="comp1" />
      <feColorMatrix
         result="fbSourceGraphicAlpha"
         in="fbSourceGraphic"
         values="0 0 0 -1 0 0 0 0 -1 0 0 0 0 -1 0 0 0 0 1 0"
         id="feColorMatrix39" />
      <feFlood
         id="feFlood39"
         result="flood"
         in="fbSourceGraphic"
         flood-opacity="1.000000"
         flood-color="rgb(27,27,27)" />
      <feGaussianBlur
         id="feGaussianBlur39"
         result="blur"
         in="fbSourceGraphic"
         stdDeviation="2.200000" />
      <feOffset
         id="feOffset39"
         result="offset"
         in="blur"
         dx="0.000000"
         dy="0.000000" />
      <feComposite
         id="feComposite40"
         result="comp1"
         operator="in"
         in="flood"
         in2="offset" />
      <feComposite
         id="feComposite41"
         result="comp2"
         operator="over"
         in="fbSourceGraphic"
         in2="comp1" />
    </filter>
    <clipPath
       clipPathUnits="userSpaceOnUse"
       id="clipPath14">
      <path
         style="fill:#ff00f6;fill-opacity:1;stroke-width:0.246959"
         d="m 77.050889,16.746836 c 13.861781,3.03344 22.353471,3.535383 28.194021,-0.596652 0.43903,-0.310596 30.62009,14.559189 30.62009,14.559189 0,0 -172.680474,59.441831 -58.814111,-13.962537 z"
         id="path14"
         inkscape:label="eyebrow-shadow-mask"
         sodipodi:nodetypes="cscc" />
    </clipPath>
    <clipPath
       clipPathUnits="userSpaceOnUse"
       id="clipPath15">
      <path
         style="fill:#ff00f6;fill-opacity:1;stroke-width:0.246959"
         d="m 77.050889,16.746836 c 13.861781,3.03344 22.353471,3.535383 28.194021,-0.596652 0.43903,-0.310596 30.62009,14.559189 30.62009,14.559189 0,0 -172.680474,59.441831 -58.814111,-13.962537 z"
         id="path15"
         inkscape:label="eyebrow-shadow-mask"
         sodipodi:nodetypes="cscc" />
    </clipPath>
    <clipPath
       clipPathUnits="userSpaceOnUse"
       id="clipPath19">
      <path
         style="fill:#ff00f6;fill-opacity:1;stroke-width:0.246959"
         d="m 77.050889,16.746836 c 13.861781,3.03344 21.341512,1.459772 28.194021,-0.596652 65.81678,-19.751487 88.73118,47.337076 -4.10883,62.464462 C 24.843547,79.272008 -8.8991596,-4.6688179 77.050889,16.746836 Z"
         id="path19"
         inkscape:label="eyebrow-shadow-mask"
         sodipodi:nodetypes="cscc" />
    </clipPath>
    <clipPath
       clipPathUnits="userSpaceOnUse"
       id="clipPath20">
      <path
         style="fill:#ff00f6;fill-opacity:1;stroke-width:0.246959"
         d="m 77.050889,16.746836 c 13.861781,3.03344 21.341512,1.459772 28.194021,-0.596652 65.81678,-19.751487 88.73118,47.337076 -4.10883,62.464462 C 24.843547,79.272008 -8.8991596,-4.6688179 77.050889,16.746836 Z"
         id="path20"
         inkscape:label="eyebrow-shadow-mask"
         sodipodi:nodetypes="cscc" />
    </clipPath>
    <mask
       maskUnits="userSpaceOnUse"
       id="mask8">
      <path
         style="fill:#ff00f6;stroke-width:0.264999"
         d="m 70.457745,12.767207 9.011571,3.692119 6.104779,1.167732 7.747751,-0.04104 9.078674,-0.891842 7.63765,-1.823096 4.21621,-0.980113 2.76934,2.803861 3.32665,4.302531 2.57031,4.344877 1.85339,4.453017 1.12865,5.431176 -6.57937,13.587389 L 65.438613,64.26567 55.70914,34.276284 55.552139,21.107455 62.367657,16.508511 Z"
         id="path9" />
    </mask>
    <mask
       maskUnits="userSpaceOnUse"
       id="mask9">
      <path
         style="fill:#ff00f6;stroke-width:0.264999"
         d="m 70.457745,12.767207 9.011571,3.692119 6.104779,1.167732 7.747751,-0.04104 9.078674,-0.891842 7.63765,-1.823096 4.21621,-0.980113 2.76934,2.803861 3.32665,4.302531 2.57031,4.344877 1.85339,4.453017 1.12865,5.431176 -6.57937,13.587389 L 65.438613,64.26567 55.70914,34.276284 55.552139,21.107455 62.367657,16.508511 Z"
         id="path10" />
    </mask>
    <mask
       maskUnits="userSpaceOnUse"
       id="mask24">
      <path
         style="display:inline;fill:#ffffff;fill-opacity:1;stroke-width:0.28391"
         d="m 71.709923,15.166101 c 18.77837,9.072755 30.481177,6.385068 39.950747,-0.0145 5.1791,6.483894 9.03406,14.113582 10.64016,23.689242 1.28491,7.735689 1.68418,15.550773 2.04887,23.368955 0.54449,15.049115 0.42767,30.126402 -0.0957,45.221012 H 43.870457 l 8.14488,-75.421541 c 6.286994,-6.237378 12.662047,-12.27733 19.694586,-16.843165 z"
         id="path24"
         inkscape:label="eyebrow-shadow-mask"
         sodipodi:nodetypes="cccccccc" />
    </mask>
    <mask
       maskUnits="userSpaceOnUse"
       id="mask25">
      <path
         style="display:inline;fill:#ffffff;fill-opacity:1;stroke-width:0.264999"
         d="m 69.02259,13.067935 c 20.962519,7.08075 34.0265,4.983169 44.5975,-0.01132 5.78149,5.060297 10.08483,11.014819 11.87774,18.488057 1.43436,6.037249 1.88006,12.136461 2.28717,18.238091 0.60783,11.744947 0.47742,23.511881 -0.10683,35.29234 H 37.94506 L 47.037286,26.213032 C 54.055534,21.345126 61.172082,16.6313 69.02259,13.067935 Z"
         id="path25"
         inkscape:label="eyebrow-shadow-mask"
         sodipodi:nodetypes="cccccccc" />
    </mask>
    <mask
       maskUnits="userSpaceOnUse"
       id="mask26">
      <path
         style="display:inline;fill:#ffffff;fill-opacity:1;stroke-width:0.264999"
         d="m 69.02259,13.067935 c 20.962519,7.08075 34.0265,4.983169 44.5975,-0.01132 5.78149,5.060297 10.08483,11.014819 11.87774,18.488057 1.43436,6.037249 1.88006,12.136461 2.28717,18.238091 0.60783,11.744947 0.47742,23.511881 -0.10683,35.29234 H 37.94506 L 47.037286,26.213032 C 54.055534,21.345126 61.172082,16.6313 69.02259,13.067935 Z"
         id="path26"
         inkscape:label="eyebrow-shadow-mask"
         sodipodi:nodetypes="cccccccc" />
    </mask>
  </defs>
  <g
     inkscape:label="Eagle-v1"
     inkscape:groupmode="layer"
     id="layer1">
    <path
       style="display:inline;fill:#e0e0e0;fill-opacity:1;stroke-width:0.264583"
       d="m 45.238128,27.509242 c 50.948938,-37.2843306 70.817322,-16.466519 78.170502,-2.050848 7.35319,14.415671 4.04462,64.416547 4.04462,64.416547"
       id="path2"
       inkscape:label="head-bg-top"
       sodipodi:nodetypes="csc" />
    <path
       style="display:inline;fill:#f0fe31;fill-opacity:1;stroke-width:0.264583"
       d="M 65.579332,18.972017 C -8.209316,44.463498 17.173598,75.548064 17.173598,75.548064 c 0,0 4.789573,-25.901868 44.30728,-26.404281 35.05759,-0.445707 4.098454,-30.171766 4.098454,-30.171766 z"
       id="path1"
       inkscape:label="beak-v1"
       sodipodi:nodetypes="ccsc" />
    <path
       style="display:inline;fill:#e0e0e0;fill-opacity:1;stroke-width:0.264583"
       d="M 65.480466,18.881742 C 59.914636,37.79866 64.363451,38.485595 78.037099,38.505505 91.71075,38.525428 85.556877,25.0761 85.556877,25.0761 Z"
       id="path3"
       inkscape:label="head-fg-01" />
    <circle
       style="fill:#0066ff;fill-opacity:1;stroke-width:0.265;stroke-dasharray:none;opacity:1"
       id="path4"
       cx="93.015182"
       cy="24.998047"
       r="8.9157219"
       inkscape:label="iris"
       clip-path="url(#clipPath20)"
       mask="url(#mask26)" />
    <circle
       style="fill:#000000;fill-opacity:1;stroke-width:0.191421"
       id="path5"
       cx="91.568298"
       cy="26.200886"
       r="2.4950881"
       inkscape:label="pupil"
       clip-path="url(#clipPath19)"
       mask="url(#mask25)" />
    <path
       style="display:inline;fill:#333333;fill-opacity:1;stroke-width:0.264583;filter:url(#filter20)"
       d="m 78.520301,17.294083 c 12.417479,3.886828 20.024393,4.529981 25.256399,-0.764506 0.39328,-0.397976 -10.509264,-7.281349 -10.509264,-7.281349 0,0 2.336696,7.053264 -14.747135,8.045855 z"
       id="path7"
       inkscape:label="eyebrow-shadow"
       sodipodi:nodetypes="cscc"
       transform="matrix(1.116312,0,0,0.78044104,-11.028058,1.2316872)"
       clip-path="none"
       mask="url(#mask24)" />
  </g>
  <metadata
     id="metadata1">
    <rdf:RDF>
      <cc:Work
         rdf:about="">
        <cc:license
           rdf:resource="Copyright (C) 2023 Jeffrey McAteer &lt;jeffrey@jmcateer.com&gt;" />
      </cc:Work>
    </rdf:RDF>
  </metadata>
</svg>
